<svg xmlns="http://www.w3.org/2000/svg" version="1.1" xmlns:xlink="http://www.w3.org/1999/xlink" xmlns:svgjs="http://svgjs.dev/svgjs" width="128" height="128" viewBox="0 0 128 128"><g transform="matrix(0.8046875,0,0,0.8046875,12.221578124999994,12.221578124999994)"><svg viewBox="0 0 96 96" data-background-color="#f8efed" preserveAspectRatio="xMidYMid meet" height="128" width="128" xmlns="http://www.w3.org/2000/svg" xmlns:xlink="http://www.w3.org/1999/xlink"><g id="tight-bounds" transform="matrix(1,0,0,1,0.25950000000000273,0.25950000000000273)"><svg viewBox="0 0 95.481 95.481" height="95.481" width="95.481"><g><svg viewBox="0 0 95.481 95.481" height="95.481" width="95.481"><g><svg viewBox="0 0 95.481 95.481" height="95.481" width="95.481"><g id="textblocktransform"><svg viewBox="0 0 95.481 95.481" height="95.481" width="95.481" id="textblock"><g><svg viewBox="0 0 95.481 95.481" height="95.481" width="95.481"><g><svg viewBox="0 0 95.481 95.481" height="95.481" width="95.481"><g><svg xmlns="http://www.w3.org/2000/svg" xmlns:xlink="http://www.w3.org/1999/xlink" version="1.1" x="0" y="0" viewBox="14 14 72 72" enable-background="new 0 0 100 100" xml:space="preserve" height="95.481" width="95.481" class="icon-icon-0" data-fill-palette-color="accent" id="icon-0"><g fill="#ff0000" data-fill-palette-color="accent"><path d="M50 14C30.118 14 14 30.118 14 50S30.118 86 50 86 86 69.882 86 50 69.883 14 50 14M60.429 32C63.979 32 66.858 36.029 66.858 41 66.858 45.97 63.979 50 60.429 50S54 45.97 54 41C54 36.029 56.878 32 60.429 32M39.571 32C43.122 32 46 36.029 46 41 46 45.97 43.123 50 39.572 50 36.022 50 33.144 45.97 33.144 41 33.143 36.029 36.021 32 39.571 32M69.391 63.927C69.154 64.282 63.438 72.626 50 72.626L49.993 72.624 49.985 72.626C36.548 72.626 30.832 64.282 30.595 63.927A4.374 4.374 0 1 1 37.88 59.081L37.89 59.074 37.849 59.014C37.993 59.213 41.435 63.872 49.993 63.875 58.551 63.872 61.993 59.213 62.136 59.014L62.096 59.074 62.105 59.081C62.107 59.08 62.11 59.074 62.11 59.074A4.374 4.374 0 1 1 69.391 63.927" fill="#ff0000" data-fill-palette-color="accent"></path></g></svg></g></svg></g></svg></g></svg></g></svg></g></svg></g><defs></defs></svg><rect width="95.481" height="95.481" fill="none" stroke="none" visibility="hidden"></rect></g></svg></g></svg>